<svg width="40" height="40" viewBox="0 0 40 40" xmlns="http://www.w3.org/2000/svg">
  <!-- Original cartoon avatar: Cat -->
  <circle cx="20" cy="20" r="19.5" fill="#DBEAFE" stroke="#93C5FD" />

  <!-- Ears -->
  <path d="M12 16 L14.5 9.5 L18 15.5 Z" fill="#F59E0B" stroke="#92400E" stroke-width="0.6" stroke-linejoin="round"/>
  <path d="M28 16 L26 9.5 L22 15.5 Z" fill="#F59E0B" stroke="#92400E" stroke-width="0.6" stroke-linejoin="round"/>

  <!-- Head -->
  <circle cx="20" cy="22" r="10.5" fill="#FBBF24" stroke="#92400E" stroke-width="0.8"/>

  <!-- Eyes -->
  <circle cx="16.5" cy="21" r="1.4" fill="#111827"/>
  <circle cx="23.5" cy="21" r="1.4" fill="#111827"/>
  <circle cx="16.0" cy="20.5" r="0.4" fill="#FFFFFF" opacity="0.9"/>
  <circle cx="23.0" cy="20.5" r="0.4" fill="#FFFFFF" opacity="0.9"/>

  <!-- Nose + mouth -->
  <path d="M20 22.5 L18.8 24.1 H21.2 Z" fill="#EF4444" opacity="0.85"/>
  <path d="M20 24.2 Q18.4 25.4 17 24.6" stroke="#111827" stroke-width="0.8" fill="none" stroke-linecap="round"/>
  <path d="M20 24.2 Q21.6 25.4 23 24.6" stroke="#111827" stroke-width="0.8" fill="none" stroke-linecap="round"/>

  <!-- Whiskers -->
  <path d="M10.5 23.2 H15" stroke="#111827" stroke-width="0.7" opacity="0.7" stroke-linecap="round"/>
  <path d="M10.7 25.2 H15.2" stroke="#111827" stroke-width="0.7" opacity="0.6" stroke-linecap="round"/>
  <path d="M25 23.2 H29.5" stroke="#111827" stroke-width="0.7" opacity="0.7" stroke-linecap="round"/>
  <path d="M24.8 25.2 H29.3" stroke="#111827" stroke-width="0.7" opacity="0.6" stroke-linecap="round"/>
</svg>

