<svg width="40" height="40" viewBox="0 0 40 40" xmlns="http://www.w3.org/2000/svg">
  <!-- Original cartoon avatar: Wizard -->
  <circle cx="20" cy="20" r="19.5" fill="#FCE7F3" stroke="#F9A8D4" />

  <!-- Hat -->
  <path d="M20 6 L9.5 20.5 L30.5 20.5 Z" fill="#6366F1" stroke="#312E81" stroke-width="0.9" stroke-linejoin="round"/>
  <path d="M8.5 20.5 H31.5" stroke="#312E81" stroke-width="1.6" stroke-linecap="round"/>
  <circle cx="16.5" cy="14.5" r="1.1" fill="#FDE68A" opacity="0.95"/>
  <circle cx="22.8" cy="12.3" r="0.9" fill="#FDE68A" opacity="0.9"/>
  <circle cx="24.5" cy="17" r="1.0" fill="#FDE68A" opacity="0.9"/>

  <!-- Face -->
  <circle cx="20" cy="24" r="9.2" fill="#FBCFE8" stroke="#9D174D" stroke-width="0.7" opacity="0.95"/>

  <!-- Eyes -->
  <circle cx="16.8" cy="23.2" r="1.3" fill="#111827"/>
  <circle cx="23.2" cy="23.2" r="1.3" fill="#111827"/>

  <!-- Beard -->
  <path d="M14 27.2 C14.8 31.5 17.5 34 20 34 C22.5 34 25.2 31.5 26 27.2 C24.2 29.1 22.2 30.2 20 30.2 C17.8 30.2 15.8 29.1 14 27.2 Z"
        fill="#E5E7EB" stroke="#6B7280" stroke-width="0.7"/>

  <!-- Mouth -->
  <path d="M18.5 26.2 Q20 27.3 21.5 26.2" stroke="#9D174D" stroke-width="0.8" fill="none" stroke-linecap="round" opacity="0.8"/>
</svg>

