<svg width="40" height="40" viewBox="0 0 40 40" xmlns="http://www.w3.org/2000/svg">
  <!-- Original cartoon avatar: Fox -->
  <circle cx="20" cy="20" r="19.5" fill="#EDE9FE" stroke="#C4B5FD" />

  <!-- Ears -->
  <path d="M11 18 L13.5 8.8 L18 16.5 Z" fill="#FB923C" stroke="#9A3412" stroke-width="0.7" stroke-linejoin="round"/>
  <path d="M29 18 L27.5 8.8 L22 16.5 Z" fill="#FB923C" stroke="#9A3412" stroke-width="0.7" stroke-linejoin="round"/>
  <path d="M13.7 12.2 L15.2 10.1 L16.6 13.6 Z" fill="#FEE2E2" opacity="0.9"/>
  <path d="M26.3 12.2 L24.8 10.1 L23.4 13.6 Z" fill="#FEE2E2" opacity="0.9"/>

  <!-- Face -->
  <path d="M20 13 C12.8 13 10.5 18.2 10.5 22.2 C10.5 29 15.5 33 20 33 C24.5 33 29.5 29 29.5 22.2 C29.5 18.2 27.2 13 20 13 Z"
        fill="#FDBA74" stroke="#9A3412" stroke-width="0.9"/>

  <!-- Muzzle -->
  <path d="M14 25.2 C15.5 21 18 20 20 20 C22 20 24.5 21 26 25.2 C24.5 28.3 22.5 30 20 30 C17.5 30 15.5 28.3 14 25.2 Z"
        fill="#FFFFFF" stroke="#9CA3AF" stroke-width="0.6" opacity="0.95"/>

  <!-- Eyes -->
  <path d="M14.5 21.5 Q16.5 20 18.2 21.6" stroke="#111827" stroke-width="1" fill="none" stroke-linecap="round"/>
  <path d="M21.8 21.6 Q23.5 20 25.5 21.5" stroke="#111827" stroke-width="1" fill="none" stroke-linecap="round"/>

  <!-- Nose -->
  <path d="M20 24.2 L18.9 25.4 H21.1 Z" fill="#111827" opacity="0.9"/>
</svg>

